# Blender 3.4.1
# www.blender.org
mtllib cube.mtl
o Cube
v 1.000000 1.990698 -0.973756
v -1.000000 1.990698 -0.973756
v -1.000000 1.990698 1.026244
v 1.000000 1.990698 1.026244
v 1.000000 -0.009302 1.026243
v -1.000000 -0.009302 1.026243
v -1.000000 -0.009302 -0.973756
v 1.000000 -0.009302 -0.973756
vn -0.0000 1.0000 -0.0000
vn -0.0000 -0.0000 1.0000
vn -1.0000 -0.0000 -0.0000
vn -0.0000 -1.0000 -0.0000
vn 1.0000 -0.0000 -0.0000
vn -0.0000 -0.0000 -1.0000
vt 1.000000 1.000000
vt 1.000000 1.000000
vt 0.000000 1.000000
vt 0.000000 0.000000
vt 0.000000 1.000000
vt 1.000000 0.000000
vt 1.000000 1.000000
vt 0.000000 1.000000
vt 1.000000 0.000000
vt 0.000000 0.000000
vt 0.000000 0.000000
vt 1.000000 0.000000
vt 0.000000 1.000000
vt 0.000000 0.000000
vt 1.000000 1.000000
vt 1.000000 0.000000
s 1
usemtl Cube
f 1/1/1 2/3/1 3/4/1 4/6/1
s 2
f 5/9/2 4/7/2 3/5/2 6/11/2
s 3
f 6/11/3 3/5/3 2/2/3 7/12/3
s 4
f 7/13/4 8/15/4 5/9/4 6/11/4
s 5
f 8/16/5 1/1/5 4/8/5 5/10/5
s 6
f 7/14/6 2/3/6 1/1/6 8/16/6
